<svg width="20" height="20" viewBox="0 0 20 20" fill="none" xmlns="http://www.w3.org/2000/svg">
<path d="M11.8486 7.50422V10.1849H14.252C14.4369 10.1849 14.5293 10.3697 14.5293 10.5546L14.1596 12.3109C14.1596 12.4033 13.9747 12.4958 13.8822 12.4958H11.8486V19.2436H9.07556V12.5882H7.50415C7.31927 12.5882 7.22684 12.4958 7.22684 12.3109V10.5546C7.22684 10.3697 7.31927 10.2773 7.50415 10.2773H9.07556V7.22691C9.07556 5.6555 10.2772 4.45383 11.8486 4.45383H14.3444C14.5293 4.45383 14.6217 4.54626 14.6217 4.73114V6.9496C14.6217 7.13448 14.5293 7.22691 14.3444 7.22691H12.126C11.9411 7.22691 11.8486 7.31935 11.8486 7.50422Z" stroke="#92928A" stroke-width="1.5" stroke-miterlimit="10" stroke-linecap="round"/>
<path d="M12.773 19.2435H7.22683C2.60502 19.2435 0.756296 17.3948 0.756296 12.773V7.22683C0.756296 2.60502 2.60502 0.756296 7.22683 0.756296H12.773C17.3948 0.756296 19.2435 2.60502 19.2435 7.22683V12.773C19.2435 17.3948 17.3948 19.2435 12.773 19.2435Z" stroke="#92928A" stroke-width="1.5" stroke-linecap="round" stroke-linejoin="round"/>
</svg>
