<svg width="122" height="11" viewBox="0 0 122 11" fill="none" xmlns="http://www.w3.org/2000/svg">
<path d="M115.185 0.184845L115.305 0.258109L121.629 4.66504C122.086 4.98267 122.12 5.48251 121.735 5.82858L121.629 5.91149L115.305 10.3184C114.81 10.6626 114.01 10.6626 113.516 10.3184C113.059 10.0008 113.025 9.50047 113.41 9.15487L113.516 9.07197L118.945 5.28829L113.516 1.50461C113.059 1.18698 113.025 0.687141 113.41 0.341065L113.516 0.25816C113.972 -0.0594742 114.689 -0.0841056 115.185 0.184845Z" fill="#323232"/>
<path d="M6.81463 10.3916L6.69495 10.3184L0.370806 5.91145C-0.0857557 5.59382 -0.120342 5.09398 0.264965 4.74791L0.370806 4.665L6.69496 0.258074C7.18958 -0.0860762 7.98994 -0.0860761 8.48394 0.258075C8.94051 0.57571 8.97509 1.07603 8.58978 1.42162L8.48394 1.50452L3.055 5.2882L8.48394 9.07188C8.9405 9.38952 8.97509 9.88935 8.58978 10.2354L8.48394 10.3183C8.02807 10.636 7.31063 10.6606 6.81463 10.3916Z" fill="#323232"/>
</svg>
