<svg width="18" height="14" viewBox="0 0 18 14" fill="none" xmlns="http://www.w3.org/2000/svg">
<path d="M10.1123 13.9999C13.8498 14.0182 17.2613 10.8791 17.2613 7.06053C17.2613 2.885 13.8498 -0.00155799 10.1123 6.3088e-07H6.89552C3.11341 -0.00155799 0 2.88578 0 7.06053C0 10.8799 3.11341 14.0182 6.89552 13.9999H10.1123Z" fill="#0079BE"/>
<path d="M6.91086 0.578543C3.45445 0.579712 0.65407 3.44756 0.652918 6.98718C0.65407 10.5264 3.45445 13.3943 6.91086 13.3954C10.3676 13.3943 13.1692 10.5264 13.1696 6.98718C13.1692 3.44756 10.368 0.579712 6.91086 0.578543ZM2.94438 6.98718C2.94366 6.16879 3.18631 5.36922 3.64062 4.69295C4.09494 4.01669 4.73979 3.49519 5.49089 3.19663V10.7773C4.73973 10.479 4.0948 9.9576 3.64046 9.28137C3.18613 8.60514 2.94352 7.80555 2.94438 6.98718ZM8.33044 10.7789V3.19624C9.08211 3.49438 9.72751 4.01583 10.1822 4.69232C10.6368 5.36881 10.8795 6.16881 10.8785 6.98757C10.8794 7.8063 10.6366 8.60623 10.182 9.28269C9.72733 9.95915 9.08202 10.4806 8.33044 10.7789Z" fill="white"/>
<path d="M10.1123 13.9999C13.8498 14.0182 17.2613 10.8791 17.2613 7.06053C17.2613 2.885 13.8498 -0.00155799 10.1123 6.3088e-07H6.89552C3.11341 -0.00155799 0 2.88578 0 7.06053C0 10.8799 3.11341 14.0182 6.89552 13.9999H10.1123Z" fill="#0079BE"/>
<path d="M6.91086 0.578543C3.45445 0.579712 0.65407 3.44756 0.652918 6.98718C0.65407 10.5264 3.45445 13.3943 6.91086 13.3954C10.3676 13.3943 13.1692 10.5264 13.1696 6.98718C13.1692 3.44756 10.368 0.579712 6.91086 0.578543ZM2.94438 6.98718C2.94366 6.16879 3.18631 5.36922 3.64062 4.69295C4.09494 4.01669 4.73979 3.49519 5.49089 3.19663V10.7773C4.73973 10.479 4.0948 9.9576 3.64046 9.28137C3.18613 8.60514 2.94352 7.80555 2.94438 6.98718ZM8.33044 10.7789V3.19624C9.08211 3.49438 9.72751 4.01583 10.1822 4.69232C10.6368 5.36881 10.8795 6.16881 10.8785 6.98757C10.8794 7.8063 10.6366 8.60623 10.182 9.28269C9.72733 9.95915 9.08202 10.4806 8.33044 10.7789Z" fill="white"/>
</svg>
