<svg width="15" height="15" viewBox="0 0 15 15" fill="none" xmlns="http://www.w3.org/2000/svg">
<path d="M9.83356 1.16694V7.83332C9.83356 8.56662 9.23358 9.1666 8.50028 9.1666H1.16727V4.91344C1.65391 5.49342 2.40056 5.85341 3.22719 5.83341C3.9005 5.82007 4.50712 5.56009 4.96044 5.12677C5.16709 4.95345 5.34043 4.73345 5.47376 4.49346C5.71375 4.08681 5.84706 3.60682 5.83373 3.10684C5.81373 2.32687 5.46709 1.64025 4.92711 1.16694H9.83356Z" stroke="#353522" stroke-linecap="round" stroke-linejoin="round"/>
<path d="M14.5 9.1666V11.1665C14.5 12.2731 13.6067 13.1664 12.5001 13.1664H11.8335C11.8335 12.4331 11.2335 11.8331 10.5002 11.8331C9.76689 11.8331 9.16692 12.4331 9.16692 13.1664H6.50037C6.50037 12.4331 5.90039 11.8331 5.16709 11.8331C4.43379 11.8331 3.83382 12.4331 3.83382 13.1664H3.16718C2.06056 13.1664 1.16727 12.2731 1.16727 11.1665V9.1666H8.50028C9.23358 9.1666 9.83356 8.56662 9.83356 7.83332V3.16686H11.0602C11.5402 3.16686 11.9801 3.42685 12.2201 3.84017L13.3601 5.83341H12.5001C12.1335 5.83341 11.8335 6.13339 11.8335 6.50004V8.49996C11.8335 8.86661 12.1335 9.1666 12.5001 9.1666H14.5Z" stroke="#353522" stroke-linecap="round" stroke-linejoin="round"/>
<path d="M5.16709 14.4998C5.90344 14.4998 6.50037 13.9029 6.50037 13.1665C6.50037 12.4302 5.90344 11.8332 5.16709 11.8332C4.43075 11.8332 3.83382 12.4302 3.83382 13.1665C3.83382 13.9029 4.43075 14.4998 5.16709 14.4998Z" stroke="#353522" stroke-linecap="round" stroke-linejoin="round"/>
<path d="M10.5002 14.4998C11.2365 14.4998 11.8335 13.9029 11.8335 13.1665C11.8335 12.4302 11.2365 11.8332 10.5002 11.8332C9.76385 11.8332 9.16692 12.4302 9.16692 13.1665C9.16692 13.9029 9.76385 14.4998 10.5002 14.4998Z" stroke="#353522" stroke-linecap="round" stroke-linejoin="round"/>
<path d="M14.5 7.8334V9.16668H12.5001C12.1335 9.16668 11.8335 8.86669 11.8335 8.50004V6.50013C11.8335 6.13348 12.1335 5.83349 12.5001 5.83349H13.3601L14.5 7.8334Z" stroke="#353522" stroke-linecap="round" stroke-linejoin="round"/>
<path d="M5.83385 3.10702C5.84718 3.60699 5.71387 4.08698 5.47388 4.49363C5.34055 4.73362 5.16721 4.95362 4.96055 5.12695C4.50724 5.56026 3.90061 5.82025 3.22731 5.83358C2.40068 5.85358 1.65403 5.49359 1.16738 4.91362C1.07405 4.81362 0.994059 4.7003 0.920729 4.58697C0.66074 4.19366 0.514077 3.72702 0.500744 3.22705C0.480745 2.38708 0.854057 1.62043 1.45403 1.12045C1.90734 0.747131 2.48064 0.513813 3.10728 0.50048C3.80725 0.487147 4.44725 0.740469 4.92723 1.16712C5.46721 1.64043 5.81385 2.32705 5.83385 3.10702Z" stroke="#353522" stroke-miterlimit="10" stroke-linecap="round" stroke-linejoin="round"/>
<path d="M2.12751 3.18704L2.80082 3.82698L4.19407 2.48036" stroke="#353522" stroke-linecap="round" stroke-linejoin="round"/>
</svg>
