<svg width="54" height="20" viewBox="0 0 54 20" fill="none" xmlns="http://www.w3.org/2000/svg">
<path fill-rule="evenodd" clip-rule="evenodd" d="M6.91712 0.861813C3.40322 4.98845 0.0340584 10.1058 0.000274287 13.9309C-0.0128837 15.3701 0.44658 16.6265 1.54865 17.5782C3.13473 18.9487 4.88225 19.432 6.62124 19.4349C9.16252 19.4384 11.686 18.4132 13.6618 17.6226C16.9894 16.2919 53.7724 0.318423 53.7724 0.318423C54.1273 0.140612 54.0609 -0.0809388 53.6167 0.0296596C53.4374 0.0744679 13.5726 10.8779 13.5726 10.8779C12.8175 11.0915 12.0372 11.2032 11.2525 11.2101C8.18882 11.2282 5.46263 9.52761 5.48468 5.94401C5.49321 4.54179 5.92245 2.85081 6.91712 0.861813Z" fill="black"/>
</svg>
