<svg width="22" height="22" viewBox="0 0 22 22" fill="none" xmlns="http://www.w3.org/2000/svg">
<path d="M0.767442 0.767442H2.54791C3.65303 0.767442 4.52279 1.71907 4.4307 2.81395L3.5814 13.0056C3.43814 14.6735 4.75813 16.106 6.43627 16.106H17.334C18.8074 16.106 20.0967 14.8986 20.2093 13.4354L20.7619 5.76094C20.8846 4.06233 19.5953 2.68093 17.8865 2.68093H4.67629" stroke="#3F3F32" stroke-width="1.5" stroke-miterlimit="10" stroke-linecap="round" stroke-linejoin="round"/>
<path d="M15.3488 21.2326C16.0552 21.2326 16.6279 20.6599 16.6279 19.9535C16.6279 19.2471 16.0552 18.6744 15.3488 18.6744C14.6424 18.6744 14.0698 19.2471 14.0698 19.9535C14.0698 20.6599 14.6424 21.2326 15.3488 21.2326Z" stroke="#3F3F32" stroke-width="1.5" stroke-miterlimit="10" stroke-linecap="round" stroke-linejoin="round"/>
<path d="M7.16279 21.2326C7.8692 21.2326 8.44186 20.6599 8.44186 19.9535C8.44186 19.2471 7.8692 18.6744 7.16279 18.6744C6.45638 18.6744 5.88372 19.2471 5.88372 19.9535C5.88372 20.6599 6.45638 21.2326 7.16279 21.2326Z" stroke="#3F3F32" stroke-width="1.5" stroke-miterlimit="10" stroke-linecap="round" stroke-linejoin="round"/>
<path d="M7.93023 6.90698H20.2093" stroke="#3F3F32" stroke-width="1.5" stroke-miterlimit="10" stroke-linecap="round" stroke-linejoin="round"/>
</svg>
