<svg width="20" height="20" viewBox="0 0 20 20" fill="none" xmlns="http://www.w3.org/2000/svg">
<path d="M7.2093 19.3023H12.7907C17.4419 19.3023 19.3023 17.4419 19.3023 12.7907V7.2093C19.3023 2.55814 17.4419 0.697675 12.7907 0.697675H7.2093C2.55814 0.697675 0.697675 2.55814 0.697675 7.2093V12.7907C0.697675 17.4419 2.55814 19.3023 7.2093 19.3023Z" stroke="#92928A" stroke-width="1.375" stroke-linecap="round" stroke-linejoin="round"/>
<path d="M10 13.256C11.7981 13.256 13.2558 11.7983 13.2558 10.0002C13.2558 8.20203 11.7981 6.74435 10 6.74435C8.20186 6.74435 6.74418 8.20203 6.74418 10.0002C6.74418 11.7983 8.20186 13.256 10 13.256Z" stroke="#92928A" stroke-width="1.375" stroke-linecap="round" stroke-linejoin="round"/>
<path d="M15.2429 5.34884H15.2537" stroke="#92928A" stroke-width="1.83333" stroke-linecap="round" stroke-linejoin="round"/>
</svg>
